<svg xmlns="http://www.w3.org/2000/svg" data-name="Layer 1" viewBox="0 0 96 120" x="0px" y="0px"><title>Artboard 117</title><path d="M84.99219,28.11426a1.99791,1.99791,0,0,0-2.00684.01269c-20.78222,12.23633-36.626.62891-37.25293.15625-20.39551-16.1709-42.69043-.209-42.91406-.0459A1.99751,1.99751,0,0,0,2,29.85059V79.17285a2.001,2.001,0,0,0,3.18164,1.61426c.19922-.14453,20.03418-14.34668,38.09668-.02246A37.10742,37.10742,0,0,0,63.9668,86.95313a41.04687,41.04687,0,0,0,21.04785-6.05665A2.00109,2.00109,0,0,0,86,79.17285V29.85059A2.00041,2.00041,0,0,0,84.99219,28.11426ZM82,78.01367c-20.29492,11.30469-35.65039.05664-36.26758-.4082A31.93554,31.93554,0,0,0,25.459,70.36914,41.91967,41.91967,0,0,0,6,75.62207V30.9082c3.958-2.56836,21.127-12.27539,37.27832.53418C43.45313,31.57617,60.2832,44.03906,82,33.21191Z"/><path d="M12.39453,33.78418a2.0001,2.0001,0,0,0-2,2V66.544a2,2,0,0,0,4,0V35.78418A2.0001,2.0001,0,0,0,12.39453,33.78418Z"/><path d="M75.40527,75.835a2.0001,2.0001,0,0,0,2-2V43.0752a2,2,0,1,0-4,0V73.835A2.0001,2.0001,0,0,0,75.40527,75.835Z"/><path d="M93.00391,14.07031a1.99673,1.99673,0,0,0-1.9961-.00683c-21.33984,12.19629-38.54394.59375-39.18847.15136C31.0166-1.80176,8.26953,14.00781,8.042,14.16992a1.99949,1.99949,0,1,0,2.31641,3.25977c.2041-.14356,20.53808-14.27637,39.0957.00976.76953.53711,18.3418,12.49512,40.5459,1.67969V64.73145a2,2,0,0,0,4,0V15.7998A1.99984,1.99984,0,0,0,93.00391,14.07031Z"/><path d="M45,38.499a16,16,0,1,0,16,16A16.01833,16.01833,0,0,0,45,38.499Zm0,28a12,12,0,1,1,12-12A12.01312,12.01312,0,0,1,45,66.499Z"/><path d="M47.3877,52.53516c-.77637-.25782-1.43262-.44434-1.99512-.60352-1.48242-.41992-1.6377-.50879-1.84473-.81738a.741.741,0,0,1-.09961-.56348,1.00356,1.00356,0,0,1,.43067-.63281,1.90782,1.90782,0,0,1,1.36621-.0459,3.06063,3.06063,0,0,1,1.94726,1.502L50.751,49.5459A6.97262,6.97262,0,0,0,47,46.24048V44.55566H43v1.43323a4.69734,4.69734,0,0,0-1.335.598,5.02753,5.02753,0,0,0-2.13867,3.17872,4.71249,4.71249,0,0,0,.69629,3.57128c1.06152,1.58789,2.46,1.98438,4.0791,2.44336.51465.14551,1.11426.31543,1.82519.55176.93067.3086.92481.3584.85743.96777a2.05877,2.05877,0,0,1-1.43946.89844,3.01234,3.01234,0,0,1-2.82812-1.70019l-3.4336,2.05078A7.60005,7.60005,0,0,0,43,61.77869v1.66565h4V61.95313a5.41318,5.41318,0,0,0,3.959-4.208C51.24707,55.1709,50.04492,53.418,47.3877,52.53516Z"/><text x="0" y="111" fill="#000000" font-size="5px" font-weight="bold" font-family="'Helvetica Neue', Helvetica, Arial-Unicode, Arial, Sans-serif">Created by Adi Kurniawan</text><text x="0" y="116" fill="#000000" font-size="5px" font-weight="bold" font-family="'Helvetica Neue', Helvetica, Arial-Unicode, Arial, Sans-serif">from the Noun Project</text></svg>